<svg xmlns="http://www.w3.org/2000/svg" version="1.1" xmlns:xlink="http://www.w3.org/1999/xlink" xmlns:svgjs="http://svgjs.dev/svgjs" width="1000" height="1000" viewBox="0 0 1000 1000"><rect width="1000" height="1000" fill="#000000"></rect><g transform="matrix(0.7,0,0,0.7,150.0000000000001,106.25)"><svg viewBox="0 0 320 360" data-background-color="#ffffff" preserveAspectRatio="xMidYMid meet" height="1125" width="1000" xmlns="http://www.w3.org/2000/svg" xmlns:xlink="http://www.w3.org/1999/xlink"><g id="tight-bounds" transform="matrix(1,0,0,1,0,0)"><svg viewBox="0 0 320 360" height="360" width="320"><g><svg></svg></g><g><svg viewBox="0 0 320 360" height="360" width="320"><g><path d="M20.961 227.22l3.726 4.658-1.863-6.056c-0.466-2.795-3.726 0.466-1.863 1.398M25.153 224.425c1.397 2.329 2.795 4.658 2.795 6.987 0 3.261 2.795 4.658 5.123 5.589-3.261-3.726-5.124-13.974-7.918-12.576M204.017 26.929c7.918 0 15.371-0.932 23.756 0.931 20.495 5.124 37.729 15.371 49.374 29.811l32.606 52.169c1.397 13.042 4.192 27.482 3.726 43.319 3.261 0 2.795-4.658 6.521-5.59-3.726 9.316-5.59 20.961-6.521 34.469-2.329-7.453 0-18.632 0.466-24.687-3.261 5.124-5.124 1.397-5.124-0.932 0.466-3.726-1.397-3.261-2.795-4.658-5.124-4.658-8.384-9.782-12.11-17.7 2.329-6.055 2.795-14.905-4.658-19.563-2.329-1.397-5.124-3.726-6.521-7.453-1.863-5.124-5.124-11.179-4.193-19.097 0.466-2.329-6.987 5.124-11.179 1.863-18.166-12.576-36.332-27.016-58.224-39.127-11.645 0-20.029-4.192-24.221-9.316-3.726-4.658-0.932-10.713 4.658-11.179 3.261 0 6.987-0.932 9.782 0.932 0.466-1.863 2.329-4.192 4.657-4.192M157.904 16.215l0.932 0.466c4.658 0.932 6.987 7.453 12.11 5.124 0 3.261 0.466 6.521-0.466 8.85-1.397 3.726-5.59 3.726-8.85 3.726-31.208-1.863-49.374 11.179-68.471 22.358-5.124 3.261-10.713 5.59-14.906 9.782-20.029 18.632-41.921 35.866-47.045 70.335l-4.192 38.195c-0.466 4.192-5.124 8.384-4.192 13.508l3.26 22.824c-3.261-3.261-5.124 0.932-4.192 2.795 0.466 1.397 2.329 6.055 5.124 1.863 3.726 6.987 7.453 20.495 12.576 26.55 15.837 18.632 36.332 35.4 53.101 52.169 4.192-0.932 7.453-0.932 8.384-3.727 1.397 2.795-1.397 5.59-3.726 6.056 7.453 4.658 15.837 8.85 27.016 9.781 14.44 0.932 27.948 3.261 40.524 6.522 6.521-1.863 13.042-2.795 20.029-3.261 2.329 0 3.726-3.726 6.521-4.658l0.466-4.658c2.795 4.192 2.329-1.397 0.466-4.192 3.261 2.795 4.192 5.124 5.589 6.987 0-1.397 3.726-6.521 3.727-0.466l0.931-6.055c1.397-0.932 1.863 5.124 3.261 0.931 1.397-4.192 4.192-0.932 6.987-2.329-0.932 1.863-0.466 5.59 2.794 3.261l3.727-3.261c2.329 5.59 6.055 3.261 7.918 2.329 20.495-13.042 40.99-28.413 60.553-43.784l-0.466 6.055 2.329-7.453c2.329 2.329 4.192 0.466 5.124-0.931 2.795-4.658 6.521-9.316 12.577-13.508-7.453 20.029-16.303 35.866-27.482 48.908l-4.658 5.59c0 3.261-0.932 7.453-4.658 7.918-1.863 0.466-5.59-0.932-8.384 1.863-1.397 1.863 3.261 5.59-0.466 2.795-3.261-2.329-6.521 0-10.248 0.932-2.795 0.932 1.863 3.726 2.795 5.589 0.932 1.863 1.863 3.726 1.398 6.056l-5.124-5.59c-6.055 3.261-9.782 9.316-14.906 13.974-2.329 1.863-1.397 5.124-1.397 7.918-3.261 0-6.987-0.932-8.85 0.932-1.397 1.863-0.932 4.658-0.932 7.453-4.658-0.466-5.124-7.453-9.315-6.056-4.192 0.932-8.85 1.397-12.577 3.727 2.795 5.59-4.658 2.329-3.726 3.26-6.987-4.192-13.042-7.453-20.495-4.658-15.837-5.124-35.4-2.795-49.84-0.931 0-2.329 0.466-4.658-0.466-5.124-0.932 2.329-3.726 1.397-3.26 1.397-8.85-6.055-17.7-9.782-27.016-14.905-8.384 0.932-16.303-3.261-18.632-5.59-6.521-6.055-13.974-2.795-20.029-4.192-13.042-3.261-17.7-16.769-19.098-26.084-0.932-4.658-4.658-6.521-6.055-6.056-6.055-19.563-15.371-37.263-22.824-55.429-1.863-4.658-1.397-9.316-1.397-14.44 2.329 0.932 4.658 0.466 4.192-2.794-2.329-15.371-7.918-27.016-13.974-38.195 3.261-15.837 3.726-34.469 11.179-48.443 6.521-12.576 18.632-19.098 27.016-29.811 2.795-3.726 2.795-8.85 5.59-12.11 9.316-9.316 18.632-19.098 28.879-27.482 4.658-3.726 10.247 0 17.234-1.397 2.329-8.384 11.645-15.837 20.495-13.508 3.726 0.932 11.179-8.85 13.508-9.782 3.726-1.397 1.863 3.726 1.863 6.987 8.85-6.987 20.961-10.713 32.14-14.906" fill="#6f605b" fill-rule="nonzero" stroke="none" stroke-width="1" stroke-linecap="butt" stroke-linejoin="miter" stroke-miterlimit="10" stroke-dasharray="" stroke-dashoffset="0" font-family="none" font-weight="none" font-size="none" text-anchor="none" style="mix-blend-mode: normal" data-fill-palette-color="tertiary"></path></g><g transform="matrix(1,0,0,1,74.0690895950409,90)"><svg viewBox="0 0 171.8618208099182 180" height="180" width="171.8618208099182"><g><svg viewBox="0 0 171.8618208099182 180" height="180" width="171.8618208099182"><g><svg viewBox="0 0 192 201.09178313794246" height="180" width="171.8618208099182"><g transform="matrix(1,0,0,1,0,119.52384110515392)"><svg viewBox="0 0 192 81.56794203278852" height="81.56794203278852" width="192"><g><svg viewBox="0 0 192 81.56794203278852" height="81.56794203278852" width="192"><g><svg viewBox="0 0 192 46.57866571530503" height="46.57866571530503" width="192"><g transform="matrix(1,0,0,1,0,0)"><svg width="192" viewBox="5 -33.25 140.14 34" height="46.57866571530503" data-palette-color="#6f605b"><path d="M8.5-15L8.5 0 5 0 5-32.5 18.75-32.5 18.75-29.5 8.5-29.5 8.5-18 16.75-18 16.75-15 8.5-15ZM38.4 0L25.75 0 25.75-32.5 29.25-32.5 29.25-3 38.4-3 38.4 0ZM60.65-26.25L60.65-26.25 60.65-6.25Q60.65-2.9 58.52-1.07 56.4 0.75 52.17 0.75 47.95 0.75 45.8-1.07 43.65-2.9 43.65-6.25L43.65-6.25 43.65-26.25Q43.65-29.6 45.77-31.43 47.9-33.25 52.12-33.25 56.34-33.25 58.5-31.43 60.65-29.6 60.65-26.25ZM57.15-6.25L57.15-6.25 57.15-26.25Q57.15-30.25 52.15-30.25 47.15-30.25 47.15-26.25L47.15-26.25 47.15-6.25Q47.15-2.25 52.15-2.25 57.15-2.25 57.15-6.25ZM73.39-22.85L73.39 0 69.89 0 69.89-32.5 71.39-32.5 72.84-28.8Q74.44-33.25 77.94-33.25L77.94-33.25Q83.89-33.25 83.89-26.75L83.89-26.75 83.89-23.5 80.54-23.5 80.54-26.95Q80.54-30.25 77.79-30.25L77.79-30.25Q76.14-30.25 74.77-28.35 73.39-26.45 73.39-22.85L73.39-22.85ZM93.39-32.5L93.39 0 89.89 0 89.89-32.5 93.39-32.5ZM118.89-26.25L118.89 0 117.39 0 116.09-3.2Q115.04-1.4 113.34-0.33 111.64 0.75 109.59 0.75L109.59 0.75Q102.39 0.75 102.39-6.25L102.39-6.25 102.39-11.25Q102.39-18.25 109.59-18.25L109.59-18.25 115.39-18.25 115.39-26.45Q115.39-28.25 114.24-29.25 113.09-30.25 110.84-30.25L110.84-30.25Q106.39-30.25 106.39-26.45L106.39-26.45 106.39-23.5 102.89-23.5 102.89-26.25Q102.89-29.6 104.86-31.43 106.84-33.25 110.84-33.25 114.84-33.25 116.86-31.43 118.89-29.6 118.89-26.25L118.89-26.25ZM115.39-7.1L115.39-15.25 109.59-15.25Q107.49-15.25 106.69-14.2 105.89-13.15 105.89-11.25L105.89-11.25 105.89-6.25Q105.89-4.35 106.69-3.3 107.49-2.25 109.59-2.25 111.69-2.25 113.49-3.88 115.29-5.5 115.39-7.1L115.39-7.1ZM131.89-25.25L131.89 0 128.39 0 128.39-32.5 129.89-32.5 131.14-29.25Q133.54-33.25 137.79-33.25L137.79-33.25Q145.14-33.25 145.14-26.25L145.14-26.25 145.14 0 141.64 0 141.64-26.25Q141.64-28.15 140.81-29.2 139.99-30.25 137.79-30.25 135.59-30.25 133.74-28.55 131.89-26.85 131.89-25.25L131.89-25.25Z" opacity="1" transform="matrix(1,0,0,1,0,0)" fill="#ffffff" class="undefined-text-0" data-fill-palette-color="primary" id="text-0"></path></svg></g></svg></g><g transform="matrix(1,0,0,1,0,53.3756109311452)"><svg viewBox="0 0 192 28.192331101643333" height="28.192331101643333" width="192"><g transform="matrix(1,0,0,1,0,0)"><svg width="192" viewBox="-0.35 -39.2 328.57000000000005 48.25" height="28.192331101643333" data-palette-color="#f36527"><path d="M45.35-35.4L45.35-35.4 45.35-34.4Q44.4-34.2 43.25-33.27 42.1-32.35 41.4-30.05L41.4-30.05 31.95 0.25Q31.85 0.25 31.75 0.25 31.65 0.25 31.55 0.25L31.55 0.25Q31.45 0.25 31.35 0.25 31.25 0.25 31.15 0.25L31.15 0.25 20.55-31.2Q19.9-33.15 19.1-33.75 18.3-34.35 17.6-34.4L17.6-34.4 17.6-35.4Q18.5-35.35 19.85-35.3 21.2-35.25 22.45-35.25L22.45-35.25Q24.4-35.25 26.1-35.3 27.8-35.35 28.85-35.4L28.85-35.4 28.85-34.4Q27.35-34.35 26.48-34.1 25.6-33.85 25.48-33 25.35-32.15 25.95-30.2L25.95-30.2 33.4-7.15 32.7-6.55 39.3-27.3Q40.2-30.05 40.13-31.58 40.05-33.1 39-33.73 37.95-34.35 35.85-34.4L35.85-34.4 35.85-35.4Q37.3-35.35 38.8-35.3 40.3-35.25 41.6-35.25L41.6-35.25Q42.9-35.25 43.75-35.3 44.6-35.35 45.35-35.4ZM10.4-35.4L10.4-35.4 10.4-34.4Q9.1-34.3 8.53-33.9 7.95-33.5 7.98-32.63 8-31.75 8.5-30.2L8.5-30.2 16.25-6.55 15-5.3 22-27.65 22.75-26.45 14.5 0.25Q14.4 0.25 14.3 0.25 14.2 0.25 14.1 0.25L14.1 0.25Q14 0.25 13.9 0.25 13.8 0.25 13.7 0.25L13.7 0.25 3.1-31.2Q2.45-33.15 1.45-33.75 0.45-34.35-0.35-34.4L-0.35-34.4-0.35-35.4Q0.65-35.35 2.13-35.3 3.6-35.25 5-35.25L5-35.25Q6.65-35.25 8.08-35.3 9.5-35.35 10.4-35.4ZM55.4-26.45L55.4-26.45Q59.8-26.45 62.27-23.78 64.75-21.1 64.75-15.45L64.75-15.45 47.1-15.45 47.05-16.4 59.95-16.4Q60.05-18.85 59.55-20.93 59.05-23 57.97-24.25 56.9-25.5 55.2-25.5L55.2-25.5Q52.9-25.5 51.12-23.2 49.35-20.9 49-15.9L49-15.9 49.15-15.7Q49.05-14.95 49-14.05 48.95-13.15 48.95-12.25L48.95-12.25Q48.95-8.85 50.05-6.4 51.15-3.95 52.92-2.68 54.7-1.4 56.6-1.4L56.6-1.4Q58.85-1.4 60.75-2.5 62.65-3.6 63.95-6.4L63.95-6.4 64.95-6Q64.4-4.35 63.15-2.8 61.9-1.25 60-0.28 58.1 0.7 55.6 0.7L55.6 0.7Q52 0.7 49.42-0.95 46.85-2.6 45.47-5.53 44.1-8.45 44.1-12.25L44.1-12.25Q44.1-16.65 45.5-19.83 46.9-23 49.45-24.73 52-26.45 55.4-26.45ZM83.39-26.45L83.39-26.45Q87.5-26.45 90.19-23.08 92.89-19.7 92.89-12.85L92.89-12.85Q92.89-8.35 91.37-5.33 89.84-2.3 87.3-0.8 84.75 0.7 81.75 0.7L81.75 0.7Q79.25 0.7 76.92-0.73 74.59-2.15 73.44-4.95L73.44-4.95 74.44-4.4Q75.69-2.4 77.55-1.43 79.39-0.45 81.34-0.45L81.34-0.45Q84.69-0.45 86.37-3.48 88.05-6.5 88.05-12.85L88.05-12.85Q88.05-16.9 87.39-19.6 86.75-22.3 85.39-23.63 84.05-24.95 81.94-24.95L81.94-24.95Q79.64-24.95 77.67-22.88 75.69-20.8 75.25-16.8L75.25-16.8 74.64-17.5Q75.19-21.75 77.62-24.1 80.05-26.45 83.39-26.45ZM75.59-39.15L75.59-39.15 75.59-2.6Q74.94-2.05 74.27-1.48 73.59-0.9 72.94-0.35 72.3 0.2 71.59 0.8L71.59 0.8 70.75 0.45Q70.94-0.25 71.02-0.98 71.09-1.7 71.09-2.45L71.09-2.45 71.09-33.15Q71.09-35.4 70.3-36.48 69.5-37.55 67.3-37.55L67.3-37.55 67.3-38.6Q68.89-38.45 70.39-38.45L70.39-38.45Q71.84-38.45 73.17-38.63 74.5-38.8 75.59-39.15ZM131.89-39.2L131.89-39.2 131.89-5.45Q131.89-3.2 132.72-2.13 133.54-1.05 135.69-1.05L135.69-1.05 135.69 0Q134.14-0.15 132.59-0.15L132.59-0.15Q131.14-0.15 129.81 0 128.49 0.15 127.39 0.55L127.39 0.55 127.39-33.2Q127.39-35.45 126.59-36.52 125.79-37.6 123.59-37.6L123.59-37.6 123.59-38.65Q125.19-38.5 126.69-38.5L126.69-38.5Q128.14-38.5 129.47-38.68 130.79-38.85 131.89-39.2ZM121.39-26.45L121.39-26.45Q123.59-26.45 125.52-25.4 127.44-24.35 128.09-21.8L128.09-21.8 127.44-21.3Q126.74-23.4 125.27-24.35 123.79-25.3 121.79-25.3L121.79-25.3Q118.84-25.3 116.87-22.25 114.89-19.2 114.94-12.85L114.94-12.85Q114.94-8.8 115.72-6.13 116.49-3.45 118.02-2.13 119.54-0.8 121.74-0.8L121.74-0.8Q123.84-0.8 125.54-2.6 127.24-4.4 127.59-7.9L127.59-7.9 128.19-7.2Q127.79-3.4 125.77-1.35 123.74 0.7 120.29 0.7L120.29 0.7Q117.19 0.7 114.87-0.8 112.54-2.3 111.32-5.3 110.09-8.3 110.09-12.85L110.09-12.85Q110.09-17.4 111.67-20.43 113.24-23.45 115.82-24.95 118.39-26.45 121.39-26.45ZM150.34-26.45L150.34-26.45Q154.74-26.45 157.21-23.78 159.69-21.1 159.69-15.45L159.69-15.45 142.04-15.45 141.99-16.4 154.89-16.4Q154.99-18.85 154.49-20.93 153.99-23 152.91-24.25 151.84-25.5 150.14-25.5L150.14-25.5Q147.84-25.5 146.06-23.2 144.29-20.9 143.94-15.9L143.94-15.9 144.09-15.7Q143.99-14.95 143.94-14.05 143.89-13.15 143.89-12.25L143.89-12.25Q143.89-8.85 144.99-6.4 146.09-3.95 147.86-2.68 149.64-1.4 151.54-1.4L151.54-1.4Q153.79-1.4 155.69-2.5 157.59-3.6 158.89-6.4L158.89-6.4 159.89-6Q159.34-4.35 158.09-2.8 156.84-1.25 154.94-0.28 153.04 0.7 150.54 0.7L150.54 0.7Q146.94 0.7 144.36-0.95 141.79-2.6 140.41-5.53 139.04-8.45 139.04-12.25L139.04-12.25Q139.04-16.65 140.44-19.83 141.84-23 144.39-24.73 146.94-26.45 150.34-26.45ZM186.14-25.75L186.14-25.75 186.14-24.75Q185.19-24.65 184.39-23.9 183.59-23.15 182.89-21.25L182.89-21.25 174.69 0.25Q174.49 0.25 174.29 0.25 174.09 0.25 173.84 0.25L173.84 0.25 164.64-21.9Q163.84-23.85 163.06-24.28 162.29-24.7 161.74-24.7L161.74-24.7 161.74-25.75Q162.74-25.7 163.81-25.63 164.89-25.55 166.14-25.55L166.14-25.55Q167.69-25.55 169.41-25.6 171.14-25.65 172.64-25.75L172.64-25.75 172.64-24.7Q171.39-24.7 170.41-24.53 169.44-24.35 169.16-23.55 168.89-22.75 169.64-20.8L169.64-20.8 175.89-5.35 175.59-5.1 181.29-20.05Q182.24-22.55 181.51-23.55 180.79-24.55 178.14-24.75L178.14-24.75 178.14-25.75Q179.44-25.7 180.31-25.65 181.19-25.6 182.34-25.6L182.34-25.6Q183.49-25.6 184.41-25.65 185.34-25.7 186.14-25.75ZM199.43-26.45L199.43-26.45Q203.83-26.45 206.31-23.78 208.78-21.1 208.78-15.45L208.78-15.45 191.13-15.45 191.08-16.4 203.98-16.4Q204.08-18.85 203.58-20.93 203.08-23 202.01-24.25 200.93-25.5 199.23-25.5L199.23-25.5Q196.93-25.5 195.16-23.2 193.38-20.9 193.03-15.9L193.03-15.9 193.18-15.7Q193.08-14.95 193.03-14.05 192.98-13.15 192.98-12.25L192.98-12.25Q192.98-8.85 194.08-6.4 195.18-3.95 196.96-2.68 198.73-1.4 200.63-1.4L200.63-1.4Q202.88-1.4 204.78-2.5 206.68-3.6 207.98-6.4L207.98-6.4 208.98-6Q208.43-4.35 207.18-2.8 205.93-1.25 204.03-0.28 202.13 0.7 199.63 0.7L199.63 0.7Q196.03 0.7 193.46-0.95 190.88-2.6 189.51-5.53 188.13-8.45 188.13-12.25L188.13-12.25Q188.13-16.65 189.53-19.83 190.93-23 193.48-24.73 196.03-26.45 199.43-26.45ZM220.53-39.2L220.53-39.2 220.53-4.65Q220.53-2.55 221.41-1.8 222.28-1.05 224.33-1.05L224.33-1.05 224.33 0Q223.48-0.05 221.76-0.13 220.03-0.2 218.28-0.2L218.28-0.2Q216.58-0.2 214.83-0.13 213.08-0.05 212.23 0L212.23 0 212.23-1.05Q214.28-1.05 215.16-1.8 216.03-2.55 216.03-4.65L216.03-4.65 216.03-33.2Q216.03-35.45 215.23-36.52 214.43-37.6 212.23-37.6L212.23-37.6 212.23-38.65Q213.83-38.5 215.33-38.5L215.33-38.5Q216.78-38.5 218.11-38.68 219.43-38.85 220.53-39.2ZM238.63-26.45L238.63-26.45Q241.83-26.45 244.38-25.05 246.93-23.65 248.45-20.65 249.98-17.65 249.98-12.85L249.98-12.85Q249.98-8.05 248.45-5.08 246.93-2.1 244.38-0.7 241.83 0.7 238.63 0.7L238.63 0.7Q235.48 0.7 232.9-0.7 230.33-2.1 228.8-5.08 227.28-8.05 227.28-12.85L227.28-12.85Q227.28-17.65 228.8-20.65 230.33-23.65 232.9-25.05 235.48-26.45 238.63-26.45ZM238.63-25.45L238.63-25.45Q235.78-25.45 233.95-22.5 232.13-19.55 232.13-12.85L232.13-12.85Q232.13-6.15 233.95-3.23 235.78-0.3 238.63-0.3L238.63-0.3Q241.48-0.3 243.3-3.23 245.13-6.15 245.13-12.85L245.13-12.85Q245.13-19.55 243.3-22.5 241.48-25.45 238.63-25.45ZM261.73-26.3L261.73-26.3 261.73 4.4Q261.73 6.55 263 7.28 264.28 8 266.53 8L266.53 8 266.53 9.05Q265.43 9 263.48 8.93 261.53 8.85 259.33 8.85L259.33 8.85Q257.78 8.85 256.25 8.93 254.73 9 253.93 9.05L253.93 9.05 253.93 8Q255.73 8 256.48 7.35 257.23 6.7 257.23 4.9L257.23 4.9 257.23-20.3Q257.23-22.55 256.43-23.63 255.63-24.7 253.43-24.7L253.43-24.7 253.43-25.75Q255.03-25.6 256.53-25.6L256.53-25.6Q257.98-25.6 259.3-25.78 260.63-25.95 261.73-26.3ZM269.73-26.45L269.73-26.45Q273.68-26.45 276.35-23.28 279.03-20.1 279.03-14.05L279.03-14.05Q279.03-10.45 277.85-7.05 276.68-3.65 274.18-1.48 271.68 0.7 267.58 0.7L267.58 0.7Q265.23 0.7 263.5-0.4 261.78-1.5 261.18-3.05L261.18-3.05 261.68-3.75Q262.38-2.35 263.7-1.4 265.03-0.45 267.03-0.45L267.03-0.45Q269.83-0.45 271.38-2.2 272.93-3.95 273.55-6.88 274.18-9.8 274.18-13.35L274.18-13.35Q274.18-17.35 273.53-19.9 272.88-22.45 271.58-23.7 270.28-24.95 268.38-24.95L268.38-24.95Q265.93-24.95 263.93-22.93 261.93-20.9 261.38-16.8L261.38-16.8 260.78-17.5Q261.33-21.75 263.8-24.1 266.28-26.45 269.73-26.45ZM294.97-26.45L294.97-26.45Q299.37-26.45 301.85-23.78 304.32-21.1 304.32-15.45L304.32-15.45 286.67-15.45 286.62-16.4 299.52-16.4Q299.62-18.85 299.12-20.93 298.62-23 297.55-24.25 296.47-25.5 294.77-25.5L294.77-25.5Q292.47-25.5 290.7-23.2 288.92-20.9 288.57-15.9L288.57-15.9 288.72-15.7Q288.62-14.95 288.57-14.05 288.52-13.15 288.52-12.25L288.52-12.25Q288.52-8.85 289.62-6.4 290.72-3.95 292.5-2.68 294.27-1.4 296.17-1.4L296.17-1.4Q298.42-1.4 300.32-2.5 302.22-3.6 303.52-6.4L303.52-6.4 304.52-6Q303.97-4.35 302.72-2.8 301.47-1.25 299.57-0.28 297.67 0.7 295.17 0.7L295.17 0.7Q291.57 0.7 289-0.95 286.42-2.6 285.05-5.53 283.67-8.45 283.67-12.25L283.67-12.25Q283.67-16.65 285.07-19.83 286.47-23 289.02-24.73 291.57-26.45 294.97-26.45ZM323.67-26.45L323.67-26.45Q325.02-26.45 326.05-25.9 327.07-25.35 327.65-24.48 328.22-23.6 328.22-22.5L328.22-22.5Q328.22-21.25 327.45-20.3 326.67-19.35 325.37-19.35L325.37-19.35Q324.32-19.35 323.52-20.03 322.72-20.7 322.72-21.95L322.72-21.95Q322.72-22.9 323.25-23.58 323.77-24.25 324.42-24.65L324.42-24.65Q324.07-25.15 323.37-25.15L323.37-25.15Q321.27-25.15 319.72-23.58 318.17-22 317.3-19.8 316.42-17.6 316.42-15.75L316.42-15.75 316.42-5.15Q316.42-2.7 317.85-1.88 319.27-1.05 321.72-1.05L321.72-1.05 321.72 0Q320.57-0.05 318.47-0.13 316.37-0.2 314.02-0.2L314.02-0.2Q312.32-0.2 310.65-0.13 308.97-0.05 308.12 0L308.12 0 308.12-1.05Q310.17-1.05 311.05-1.8 311.92-2.55 311.92-4.65L311.92-4.65 311.92-20.3Q311.92-22.55 311.12-23.63 310.32-24.7 308.12-24.7L308.12-24.7 308.12-25.75Q309.72-25.6 311.22-25.6L311.22-25.6Q312.67-25.6 314-25.78 315.32-25.95 316.42-26.3L316.42-26.3 316.42-20.05Q316.97-21.5 318-22.98 319.02-24.45 320.47-25.45 321.92-26.45 323.67-26.45Z" opacity="1" transform="matrix(1,0,0,1,0,0)" fill="#ffffff" class="undefined-text-1" data-fill-palette-color="secondary" id="text-1"></path></svg></g></svg></g></svg></g></svg></g><g transform="matrix(1,0,0,1,47.1872536209258,0)"><svg viewBox="0 0 97.6254927581484 112.72689588931375" height="112.72689588931375" width="97.6254927581484"><g><svg xmlns:x="http://ns.adobe.com/Extensibility/1.0/" xmlns:i="http://ns.adobe.com/AdobeIllustrator/10.0/" xmlns:graph="http://ns.adobe.com/Graphs/1.0/" xmlns="http://www.w3.org/2000/svg" xmlns:xlink="http://www.w3.org/1999/xlink" version="1.0" x="0" y="0" viewBox="12.13 6.272 75.74000000000001 87.45599999999999" enable-background="new 0 0 100 100" xml:space="preserve" height="112.72689588931375" width="97.6254927581484" class="icon-icon-0" data-fill-palette-color="accent" id="icon-0"><g fill="#f36527" data-fill-palette-color="accent"><path d="M50 6.272L12.13 28.137v43.728L50 93.728l37.87-21.863V28.137L50 6.272zM78.438 32.691L51 16.85V9.159L84.898 28.73 78.438 32.691zM50 59.352l-7.21-4.162v-8.326L50 42.701l7.209 4.162v8.326L50 59.352zM49 40.968l-6.67 3.851-7.902-4.675L49 31.731V40.968zM40.79 46.232v8.625l-8 4.451v-17.81L40.79 46.232zM41.498 56.753L49 61.083v9.238l-15.65-9.035L41.498 56.753zM51 61.083l7.502-4.331 8.148 4.534L51 70.321V61.083zM59.209 54.855v-8.73l0.314 0.513 7.687-4.714v17.383L59.209 54.855zM58.479 44.934l0.335 0.547L51 40.969v-9.237l14.94 8.625L58.479 44.934zM49 29.422l-16.547 9.553-8.779-5.194L49 19.159V29.422zM30.79 40.315v20.107l-8 4.451V35.582L30.79 40.315zM31.313 62.42L49 72.63v8.212L24.071 66.449 31.313 62.42zM51 72.63l17.687-10.211 7.243 4.03L51 80.842V72.63zM69.21 60.421V40.698l8-4.907v29.081L69.21 60.421zM67.879 39.168L51 29.423V19.159l25.5 14.722L67.879 39.168zM49 16.849L21.699 32.612l-6.579-3.893L49 9.159V16.849zM20.79 34.398v31.588l-6.66 3.705V30.458L20.79 34.398zM22.034 67.583L49 83.15v7.691L15.251 71.357 22.034 67.583zM51 83.15l26.966-15.568 6.783 3.775L51 90.842V83.15zM79.21 65.985V34.564l6.66-4.085v39.212L79.21 65.985z" fill="#ffffff" data-fill-palette-color="accent"></path></g></svg><g></g></g></svg></g><g></g></svg></g></svg></g></svg></g></svg></g><defs></defs></svg><rect width="320" height="360" fill="none" stroke="none" visibility="hidden"></rect></g></svg></g></svg>